<?xml version="1.0" standalone="no"?>
<!DOCTYPE svg PUBLIC "-//W3C//DTD SVG 20010904//EN"
 "http://www.w3.org/TR/2001/REC-SVG-20010904/DTD/svg10.dtd">
<svg version="1.0" xmlns="http://www.w3.org/2000/svg"
 width="614.000000pt" height="614.000000pt" viewBox="0 0 614.000000 614.000000"
 preserveAspectRatio="xMidYMid meet">
<metadata>
Created by potrace 1.11, written by Peter Selinger 2001-2013
</metadata>
<g transform="translate(0.000000,614.000000) scale(0.100000,-0.100000)"
fill="#000000" stroke="none">
<path d="M2380 5500 l0 -40 40 0 c40 0 40 0 40 -39 0 -39 1 -40 38 -43 l37 -3
3 -795 c2 -437 0 -828 -3 -867 l-7 -73 -33 0 -33 0 -7 74 -7 75 -37 3 c-35 3
-36 5 -39 46 -3 41 -4 42 -37 42 -32 0 -34 2 -37 38 -3 35 -5 37 -40 40 -35 3
-37 5 -40 40 -3 36 -4 37 -45 40 -42 3 -43 4 -43 37 0 32 -2 34 -37 37 -36 3
-38 5 -41 41 -3 36 -4 37 -43 37 -39 0 -39 0 -39 40 l0 40 -40 0 -40 0 0 40 0
40 -40 0 -40 0 0 45 0 45 -41 0 -42 0 7 53 c3 28 6 60 6 70 0 13 8 17 35 17
35 0 35 0 35 45 l0 46 123 -3 122 -3 3 -37 c3 -37 4 -38 43 -38 39 0 39 0 39
-40 l0 -40 40 0 c40 0 40 0 40 -38 0 -37 1 -38 34 -34 l34 4 7 -84 7 -83 36 0
c36 0 37 -1 37 -38 0 -36 1 -37 38 -37 l37 0 -2 233 c-2 183 -3 200 -5 80 l-4
-153 -29 0 -30 0 -1 198 c-1 108 0 212 1 230 1 31 0 32 -39 32 -39 0 -40 -1
-43 -37 l-3 -38 -80 0 -80 0 -3 38 c-3 35 -5 37 -35 36 -30 -2 -31 -2 -4 -6
22 -4 27 -9 27 -34 0 -26 -3 -29 -30 -29 -28 0 -30 3 -30 35 l0 35 -194 0
-195 0 -3 -37 c-3 -36 -5 -38 -40 -41 -35 -3 -37 -5 -40 -40 -3 -36 -4 -37
-43 -37 -39 0 -40 1 -43 38 l-3 37 -160 0 -159 0 0 45 0 45 -40 0 -40 0 0 270
0 270 -38 0 c-32 0 -38 -3 -38 -22 0 -13 -1 -44 -2 -70 l-2 -48 -40 0 -40 0
-1 -47 c-2 -112 -1 -108 -39 -108 -34 -1 -35 -2 -38 -42 -3 -39 -5 -42 -35
-45 -30 -3 -32 -5 -29 -40 3 -37 3 -37 -39 -40 -43 -3 -43 -3 -43 -43 -1 -39
-2 -40 -38 -43 -35 -3 -37 -5 -40 -40 -3 -36 -4 -37 -46 -40 l-43 -3 3 -37 c3
-37 3 -37 -39 -40 l-43 -3 0 -75 0 -74 80 0 80 0 1 -597 c0 -329 1 -632 2
-673 l2 -75 38 -3 c34 -3 37 -6 37 -33 0 -25 -4 -29 -29 -29 -25 0 -30 5 -34
28 -4 25 -4 25 -6 -5 -1 -31 1 -33 33 -33 34 0 35 -1 38 -42 3 -42 4 -43 40
-46 35 -3 37 -5 40 -40 3 -34 6 -37 36 -40 29 -3 32 -6 32 -38 l0 -34 200 0
200 0 0 35 c0 34 1 35 40 35 40 0 40 0 40 38 0 21 2 41 4 43 3 3 23 3 45 1
l41 -4 0 -74 0 -74 35 0 c33 0 35 2 35 34 0 33 1 33 54 39 29 3 99 3 155 0
l101 -6 0 -28 c0 -25 -4 -28 -37 -32 -21 -2 53 -4 165 -5 l202 -2 0 35 c0 32
2 35 30 35 27 0 30 -3 30 -29 0 -25 -5 -30 -27 -34 -27 -4 -26 -4 4 -6 30 -1
32 1 35 37 3 35 5 37 41 40 35 3 37 5 37 37 0 33 1 34 43 37 41 3 42 4 45 41
3 36 4 37 43 37 l40 0 -3 -37 c-3 -36 -5 -38 -40 -41 -37 -3 -38 -4 -38 -43 0
-39 0 -39 -40 -39 l-40 0 0 -80 0 -80 -40 0 -40 0 0 -40 0 -40 -40 0 c-39 0
-40 -1 -40 -35 0 -34 -1 -35 -40 -35 l-40 0 0 -40 0 -40 -40 0 -40 0 0 -40 c0
-40 0 -40 -39 -40 l-38 0 -7 -71 c-4 -39 -5 -74 -2 -77 4 -3 21 -6 39 -7 17 0
53 -2 80 -3 l47 -2 2 -712 c0 -392 3 -698 5 -680 4 28 8 32 33 32 28 0 29 -1
36 -69 l6 -70 37 -3 c34 -3 36 -5 39 -40 3 -37 4 -38 43 -38 39 0 39 0 39 -40
l0 -40 190 0 190 0 0 40 0 40 45 0 45 0 0 -40 c0 -39 1 -40 35 -40 34 0 35 1
35 40 l0 40 108 0 c59 0 131 -3 160 -6 51 -7 52 -7 52 -40 l0 -34 168 0 168 0
-4 35 c-4 32 -2 35 21 35 22 0 26 -5 30 -37 l4 -38 1 43 2 42 46 0 46 0 -4 38
-3 37 43 3 43 3 -3 37 c-3 37 -3 37 40 40 l42 3 0 110 0 109 34 0 c33 0 33 -1
40 -52 3 -29 6 -97 6 -150 l0 -98 -40 0 -40 0 0 -40 0 -40 -40 0 -40 0 0 -40
0 -40 394 0 394 0 -2 33 c-1 30 -4 32 -41 37 -38 5 -40 7 -46 45 l-6 40 -2
-37 c-1 -30 -5 -38 -20 -38 -26 0 -31 55 -31 368 l0 262 75 0 75 0 0 -40 c0
-40 0 -40 39 -40 l38 0 7 -80 7 -80 34 0 c33 0 34 -2 37 -42 3 -42 4 -43 38
-43 l35 -1 3 -72 3 -72 39 0 40 0 0 -85 0 -85 -40 0 c-39 0 -40 -1 -40 -35 l0
-35 395 0 395 0 0 40 0 40 -40 0 -40 0 0 40 0 40 -40 0 -40 0 0 40 0 40 -40 0
-40 0 0 69 0 70 -32 3 -33 3 -3 78 -3 77 -32 -1 c-30 -2 -30 -2 -4 -6 22 -4
27 -9 27 -34 0 -25 -4 -29 -29 -29 l-30 0 -7 80 -7 80 -39 0 c-38 0 -39 1 -38
32 1 18 2 54 1 81 l-1 47 -40 0 -40 0 0 80 0 80 -40 0 -40 0 0 235 0 235 40 0
40 0 0 40 c0 40 0 40 39 40 40 0 40 0 43 43 3 41 4 42 38 42 33 0 35 2 40 40
5 38 7 40 40 40 33 0 35 2 40 40 l5 40 73 3 72 3 0 39 0 39 -312 -2 -313 -2
-3 -37 c-3 -37 -3 -37 40 -40 42 -3 43 -4 49 -43 l6 -40 2 38 c1 34 3 37 31
37 l30 0 0 -80 0 -80 -34 0 -34 0 -7 -80 -7 -80 -39 0 c-39 0 -39 0 -39 -39 0
-39 -1 -40 -37 -43 -37 -3 -38 -4 -41 -46 l-3 -43 -37 3 c-36 3 -37 2 -40 -34
l-3 -38 -84 0 -84 0 -4 38 -4 37 -1 -37 c-2 -30 -6 -38 -21 -38 -29 0 -31 50
-31 691 l0 586 -37 -1 -38 -1 -3 78 -3 77 -39 0 c-40 0 -40 0 -40 40 l0 40
-139 0 c-76 0 -166 3 -200 6 -59 7 -61 8 -61 35 0 25 4 29 29 29 25 0 30 -5
34 -27 4 -27 4 -26 6 4 1 30 -1 32 -36 35 -36 3 -37 4 -37 43 -1 39 -2 40 -37
43 l-37 3 -6 69 -7 69 -37 3 -37 3 -3 77 -3 77 -37 3 -37 3 -3 160 c-2 88 0
197 3 243 l7 82 34 0 c33 0 34 1 34 40 l0 40 40 0 40 0 0 40 c0 40 0 40 39 40
37 0 40 2 43 33 3 30 6 32 46 35 42 3 42 3 42 43 l0 39 80 0 80 0 0 40 0 40
-315 0 -315 0 0 -39 0 -38 69 -7 68 -7 7 -65 c8 -74 3 -88 -29 -82 -22 5 -24
1 -30 -74 l-7 -78 -39 0 -39 0 0 -45 0 -45 -40 0 -40 0 0 -40 0 -40 -40 0 -40
0 0 -40 0 -41 -82 3 -83 3 -3 38 c-3 35 -5 37 -35 36 -30 -2 -31 -2 -4 -6 22
-4 27 -9 27 -34 0 -25 -4 -29 -29 -29 -27 0 -28 2 -35 61 -3 34 -6 321 -6 638
l0 577 -34 -4 -34 -4 -7 76 -7 76 -39 0 c-39 0 -39 0 -39 40 l0 40 -230 0
-230 0 0 -40z m-957 -1097 c-3 -60 -2 -183 2 -275 l7 -167 37 -3 c34 -3 36 -5
39 -43 3 -40 4 -41 37 -37 33 4 34 4 37 -39 3 -43 4 -44 40 -47 35 -3 37 -5
40 -40 3 -34 6 -37 33 -37 27 -1 30 -4 35 -40 5 -39 6 -40 43 -37 36 3 37 3
37 -32 0 -36 0 -36 45 -36 l45 0 0 -40 0 -40 40 0 40 0 0 -40 0 -40 40 0 40 0
0 -43 c0 -43 0 -43 33 -39 l34 4 7 -63 c3 -35 3 -92 0 -127 l-7 -64 -33 4
c-34 4 -34 4 -34 -39 l0 -43 -125 0 -125 0 0 40 0 40 -40 0 -40 0 0 40 c0 39
-1 40 -35 40 -34 0 -35 1 -35 40 l0 40 -40 0 -40 0 0 79 0 80 -37 3 c-37 3
-38 4 -41 46 -3 39 -5 42 -33 42 -26 0 -29 3 -29 30 0 25 4 30 24 30 19 0 26
-6 29 -27 4 -26 4 -26 6 5 1 30 -1 32 -34 32 l-35 0 0 -139 c0 -76 -3 -166 -6
-200 l-7 -61 -38 0 c-39 0 -39 0 -39 -40 l0 -40 -80 0 -80 0 0 45 0 45 -39 0
-39 0 -1 635 -2 635 41 0 c39 0 40 1 40 35 l0 35 125 0 125 0 -7 -107z m1747
-873 l0 -40 40 0 40 0 0 -80 0 -80 40 0 40 0 0 -45 0 -45 40 0 40 0 0 -80 0
-80 40 0 40 0 0 -80 0 -80 -40 0 c-39 0 -40 -1 -40 -35 l0 -35 185 0 c102 0
188 0 193 0 4 0 8 69 10 154 l3 155 -43 3 c-42 3 -43 4 -46 41 -3 35 -5 37
-38 37 -34 0 -34 0 -34 46 l0 45 38 -3 c35 -3 37 -5 40 -40 3 -37 4 -38 43
-38 39 0 39 0 39 -39 0 -39 1 -40 38 -43 l37 -3 3 -800 c2 -440 0 -833 -3
-872 l-7 -73 -33 0 -34 0 -3 78 -3 77 -37 3 c-37 3 -38 4 -38 43 0 39 0 39
-39 39 -40 0 -40 0 -43 43 -3 42 -3 42 -40 39 -35 -3 -37 -2 -40 30 -3 29 -7
33 -35 36 -31 3 -33 6 -33 43 0 39 0 39 -39 39 -39 0 -40 1 -43 38 -3 36 -4
37 -45 40 -43 3 -43 3 -43 43 l0 41 -37 -4 c-37 -3 -38 -2 -43 37 -5 38 -7 40
-40 40 -34 0 -35 1 -38 43 -3 41 -4 42 -38 42 l-34 0 0 80 0 80 30 0 c28 0 30
-3 32 -37 1 -21 4 -2 7 42 l6 80 120 0 120 0 3 -37 c3 -37 4 -38 43 -38 39 0
39 0 39 -39 0 -37 2 -40 33 -43 30 -3 32 -6 35 -45 3 -40 4 -42 40 -45 41 -3
39 1 41 -110 l1 -48 40 0 40 0 0 -40 c0 -39 1 -40 35 -40 l35 0 0 83 0 83 -35
-4 -35 -4 0 241 0 241 -40 0 -40 0 0 -40 0 -40 -62 0 c-35 0 -87 3 -115 6 -50
6 -53 8 -53 35 0 25 4 29 29 29 25 0 30 -5 34 -27 4 -26 4 -26 6 5 l1 32 -235
0 -235 0 0 -40 0 -40 -205 0 -205 0 0 46 c0 46 0 46 -30 42 l-30 -5 -2 239
c-1 131 -2 253 -2 271 -1 29 2 32 32 35 l32 3 0 -155 0 -156 280 0 280 0 0 35
c0 34 -1 35 -40 35 l-40 0 -2 43 -1 42 -4 -37 c-4 -34 -7 -38 -32 -38 -27 0
-29 3 -35 53 -8 70 -8 572 1 580 3 4 42 7 85 7 l78 0 0 -40z m-636 -262 c12
-105 11 -108 -33 -108 -22 0 -43 5 -46 10 -3 6 -3 42 1 80 l7 70 32 0 c31 0
32 -1 39 -52z m234 -1245 l2 -272 38 -3 c36 -3 37 -4 40 -45 3 -43 3 -43 43
-43 39 0 39 0 39 -40 0 -39 1 -40 34 -40 33 0 35 -2 38 -37 3 -37 4 -38 46
-41 42 -3 42 -3 42 -43 0 -39 0 -39 40 -39 l40 0 0 -40 0 -40 40 0 40 0 0 -40
0 -40 40 0 40 0 0 -40 0 -40 40 0 40 0 0 -40 0 -40 40 0 40 0 0 -115 0 -115
-40 0 -40 0 0 -40 0 -40 -125 0 -125 0 0 38 c0 36 -1 37 -37 37 -35 0 -38 2
-41 32 -3 29 -7 32 -40 35 -35 3 -37 5 -40 40 -3 35 -5 37 -40 40 l-37 3 -5
80 -5 80 -35 0 c-38 0 -37 -5 -39 113 -1 41 -2 42 -36 42 l-35 0 0 -230 0
-230 -85 0 -85 0 -2 73 c-1 40 -3 55 -5 34 -4 -32 -8 -37 -29 -37 l-24 0 0
635 0 635 30 0 c28 0 30 2 30 38 0 21 3 42 7 46 4 4 41 5 83 4 l75 -3 3 -272z
m62 -733 c0 -25 -4 -30 -25 -30 -21 0 -25 5 -25 30 0 25 4 30 25 30 21 0 25
-5 25 -30z"/>
<path d="M3784 2300 c0 -85 2 -120 3 -77 2 42 2 112 0 155 -1 42 -3 7 -3 -78z"/>
<path d="M3563 4733 c86 -2 228 -2 315 0 86 1 15 3 -158 3 -173 0 -244 -2
-157 -3z"/>
<path d="M2483 3703 c9 -2 23 -2 30 0 6 3 -1 5 -18 5 -16 0 -22 -2 -12 -5z"/>
<path d="M4913 2523 c86 -2 228 -2 315 0 86 1 15 3 -158 3 -173 0 -244 -2
-157 -3z"/>
</g>
</svg>
